<svg width="213" height="52" xmlns="http://www.w3.org/2000/svg"><path opacity=".4" d="M.622 25.529a.5.5 0 0 0 .756.653l-.756-.653zm104.484.503l.356-.351-.356.351zm107.393-.025a.5.5 0 0 0-.524-.474l-4.494.225a.5.5 0 1 0 .05.999l3.995-.2.2 3.995a.5.5 0 0 0 .999-.05l-.226-4.495zm-211.12.175c.207-.24.42-.482.636-.726l-.746-.665c-.22.247-.436.493-.647.738l.756.653zm1.97-2.174c.444-.47.904-.94 1.379-1.413l-.706-.709c-.482.48-.948.958-1.4 1.433l.726.689zm2.784-2.773c.47-.443.952-.886 1.446-1.328l-.666-.745c-.501.448-.99.896-1.466 1.345l.686.727zm2.933-2.621a77.08 77.08 0 0 1 1.519-1.255l-.627-.779c-.524.422-1.037.846-1.538 1.27l.646.764zm3.061-2.464a77.997 77.997 0 0 1 1.58-1.176l-.587-.81c-.543.394-1.076.791-1.6 1.191l.607.795zm3.19-2.312a78.026 78.026 0 0 1 1.63-1.09l-.545-.839c-.56.364-1.11.732-1.652 1.104l.567.825zm3.295-2.143a76.438 76.438 0 0 1 1.688-1.009l-.502-.865a74.95 74.95 0 0 0-1.71 1.022l.524.851zm3.4-1.971a74.25 74.25 0 0 1 1.742-.92l-.455-.891a75.05 75.05 0 0 0-1.767.933l.48.878zm3.5-1.79a71.515 71.515 0 0 1 1.785-.823l-.406-.914c-.61.271-1.213.55-1.81.835l.431.902zm3.594-1.597c.602-.247 1.21-.488 1.825-.72l-.354-.935c-.623.235-1.24.48-1.851.73l.38.925zm3.676-1.39a66.19 66.19 0 0 1 1.862-.612l-.298-.955a67.25 67.25 0 0 0-1.89.622l.326.945zm3.747-1.17a63.924 63.924 0 0 1 1.899-.5l-.24-.97c-.648.16-1.29.329-1.929.507l.27.963zm3.81-.94a61.755 61.755 0 0 1 1.93-.38l-.178-.985a64.66 64.66 0 0 0-1.96.387l.208.978zm3.862-.698a60.13 60.13 0 0 1 1.951-.256L46.04.89c-.666.076-1.327.163-1.984.26l.146.989zm3.899-.446a60.13 60.13 0 0 1 1.961-.127l-.048-.998c-.668.031-1.333.074-1.994.128l.08.997zm3.92-.187c.65-.01 1.305-.008 1.962.005l.02-1a59.277 59.277 0 0 0-1.997-.005l.015 1zm3.923.076c.649.035 1.3.08 1.955.138l.087-.997a59.21 59.21 0 0 0-1.989-.14l-.053 1zm3.909.341c.644.078 1.29.167 1.94.268l.153-.988A59.737 59.737 0 0 0 59.972.93l-.12.993zm3.878.602c.636.12 1.275.252 1.916.395l.218-.976a60.908 60.908 0 0 0-1.948-.402l-.186.983zm3.83.855c.626.162 1.256.334 1.887.519l.28-.96a62.674 62.674 0 0 0-1.918-.527l-.25.968zm3.766 1.099a62.6 62.6 0 0 1 1.854.636l.339-.94a65.297 65.297 0 0 0-1.883-.647l-.31.95zm3.691 1.33c.605.238 1.211.487 1.82.747l.393-.919a68.143 68.143 0 0 0-1.846-.76l-.367.931zm3.608 1.544c.593.275 1.188.56 1.783.856l.445-.896c-.604-.3-1.207-.59-1.809-.867l-.42.907zM82.141 9.1c.579.307 1.159.625 1.74.953l.491-.87a76.316 76.316 0 0 0-1.763-.966l-.468.883zm3.424 1.932c.56.335 1.119.679 1.68 1.033l.534-.845a81.56 81.56 0 0 0-1.7-1.046l-.514.858zm3.332 2.106c.538.358 1.076.725 1.615 1.102l.573-.82a87.153 87.153 0 0 0-1.633-1.115l-.555.833zm3.234 2.261c.519.38 1.038.77 1.557 1.167l.608-.794a93.42 93.42 0 0 0-1.573-1.18l-.592.807zm3.11 2.381c.511.41 1.024.828 1.537 1.255l.64-.768a99.25 99.25 0 0 0-1.554-1.268l-.624.781zm3.02 2.515c.495.428.99.865 1.486 1.31l.669-.744c-.5-.45-1-.89-1.5-1.322l-.654.756zm2.943 2.643c.472.44.944.887 1.417 1.342l.694-.72c-.477-.459-.953-.91-1.43-1.354l-.681.732zm2.835 2.733c.237.236.473.473.71.713l.712-.702c-.239-.242-.477-.482-.716-.72l-.706.709zm.71.713c.243.247.487.492.73.734l.706-.708c-.241-.24-.483-.483-.724-.728l-.712.702zm2.192 2.164c.487.469.974.929 1.461 1.38l.68-.733a110.27 110.27 0 0 1-1.448-1.368l-.693.721zm2.968 2.752c.512.457 1.023.904 1.535 1.343l.651-.758a112.05 112.05 0 0 1-1.52-1.33l-.666.745zm3.068 2.634c.533.439 1.066.869 1.599 1.29l.619-.785a98.355 98.355 0 0 1-1.582-1.277l-.636.772zm3.204 2.53c.542.408 1.083.808 1.624 1.198l.585-.811a90.9 90.9 0 0 1-1.606-1.186l-.603.798zm3.301 2.377a81.35 81.35 0 0 0 1.674 1.12l.546-.837a84.421 84.421 0 0 1-1.655-1.107l-.565.824zm3.401 2.217c.581.358 1.162.707 1.742 1.045l.503-.864a81.4 81.4 0 0 1-1.719-1.032l-.526.85zm3.506 2.043c.603.33 1.204.65 1.805.959l.457-.89a75.483 75.483 0 0 1-1.781-.946l-.481.877zm3.61 1.856c.622.298 1.243.585 1.863.861l.407-.913a70.72 70.72 0 0 1-1.837-.85l-.433.902zm3.72 1.657c.637.261 1.272.511 1.906.75l.353-.935a67.23 67.23 0 0 1-1.878-.74l-.381.925zm3.813 1.437c.649.222 1.297.433 1.943.632l.294-.956a64.962 64.962 0 0 1-1.912-.623l-.325.947zm3.893 1.2c.66.182 1.318.351 1.975.51l.234-.973a63.438 63.438 0 0 1-1.944-.5l-.265.964zm3.959.954c.67.138 1.338.265 2.004.38l.171-.985a61.758 61.758 0 0 1-1.972-.375l-.203.98zm4.013.696a65.02 65.02 0 0 0 2.025.25l.106-.995a60.658 60.658 0 0 1-1.992-.246l-.139.99zm4.05.432c.681.05 1.361.089 2.037.116l.041-.999a60.897 60.897 0 0 1-2.005-.114l-.073.997zm4.068.166c.684.006 1.365 0 2.042-.017l-.024-1c-.667.017-1.337.022-2.01.017l-.008 1zm4.07-.1a63.485 63.485 0 0 0 2.038-.148l-.088-.996a62.86 62.86 0 0 1-2.006.146l.056.999zm4.059-.36a65.5 65.5 0 0 0 2.022-.276l-.151-.989c-.66.1-1.324.192-1.991.272l.12.993zm4.028-.614c.67-.124 1.335-.257 1.997-.4l-.211-.977a66.47 66.47 0 0 1-1.968.393l.182.983zm3.981-.86c.66-.162 1.315-.335 1.966-.516l-.268-.963c-.642.178-1.288.348-1.938.509l.24.97zm3.922-1.09c.649-.201 1.292-.41 1.93-.628l-.322-.947c-.629.215-1.264.421-1.904.62l.296.954zm3.851-1.312c.638-.237 1.27-.482 1.896-.734l-.373-.928c-.618.249-1.242.49-1.871.724l.348.938zm3.773-1.52c.625-.271 1.244-.55 1.857-.835l-.422-.907c-.605.282-1.216.557-1.834.825l.399.917zm3.684-1.714a80.858 80.858 0 0 0 1.815-.932l-.468-.884c-.59.313-1.188.62-1.793.92l.446.896zm3.599-1.905a84.22 84.22 0 0 0 1.759-1.016l-.511-.86a82.65 82.65 0 0 1-1.738 1.004l.49.872zm3.498-2.08a82.34 82.34 0 0 0 1.704-1.099l-.552-.833c-.553.366-1.114.728-1.684 1.086l.532.847zm3.387-2.243a83.29 83.29 0 0 0 1.656-1.186l-.592-.806c-.535.393-1.081.784-1.636 1.172l.572.82zm3.275-2.406c.543-.42 1.075-.842 1.596-1.265l-.631-.776c-.514.418-1.04.835-1.576 1.25l.611.79zm3.161-2.571a76.215 76.215 0 0 0 1.526-1.341l-.669-.743c-.489.442-.992.883-1.507 1.324l.65.76zm3.011-2.716c.503-.48.991-.957 1.462-1.431l-.71-.705c-.464.468-.945.939-1.442 1.411l.69.725zm2.878-2.902c.231-.247.457-.493.678-.737l-.742-.671c-.218.24-.44.482-.667.726l.731.682z"/></svg>