<svg width="88" height="86" fill="none" xmlns="http://www.w3.org/2000/svg"><path d="M84.4 77.6l-48-1c-1.4 0-2.7-1.3-2.7-2.7l.7-29.9c0-1.4 1.3-2.6 2.7-2.6l48 .9c1.5 0 2.7 1.3 2.7 2.8l-.6 29.8c0 1.4-1.3 2.7-2.8 2.7z" fill="#A38FDD"/><path d="M70.2 84.5l-19.4-.2 1.5-7.4-1.3-4 19.4.3-1.6 4 1.4 7.3z" fill="#A38FDD"/><path d="M82.4 72.8L38 72.1l1-26.6 44.5.7-1 26.6z" fill="#826BC4"/><path d="M16.8 16.7c12.9-13 30.7-8.4 39.5 5 8.8 13.3-.2 24-.2 24l5.7 10-10.6-2.6S36 70.1 16.5 52c-12-11.1-9.6-25.3.3-35.2z" fill="#FF8A00" fill-opacity=".7"/><path d="M21 37.7c8.1 3 17.8 2.3 25-2.5" stroke="#fff" stroke-width="3" stroke-miterlimit="10" stroke-linecap="round"/><path d="M26.2 33.2a2.7 2.7 0 102.6-4.6 2.7 2.7 0 00-2.6 4.6zM36.3 32.2a2.8 2.8 0 102.8-4.8 2.8 2.8 0 00-2.8 4.8z" fill="#fff"/></svg>