<svg width="304" height="184" fill="none" xmlns="http://www.w3.org/2000/svg"><g clip-path="url(#clip0)"><path d="M165.352.558S56.624-8.503 36.272 47.952C14.947 106.915 46.45 188.6 156.153 183.86c109.703-4.879 118.903-78.34 114.163-109.703-5.715-36.8-50.879-71.649-104.963-73.6z" fill="#ED624D"/><path d="M150.436 154.588c36.183 0 65.515-5.242 65.515-11.709s-29.332-11.709-65.515-11.709-65.515 5.242-65.515 11.709 29.332 11.709 65.515 11.709z" fill="#CA4B38"/><path d="M224.176 132.285c0-.836 7.666-16.309 7.666-16.309l17.564 6.97-7.109 12.266-18.121-2.927z" fill="#C66E5D"/><path d="M79.903 55.479s-.418-17.564 7.806-17.982c8.224-.418 10.455 7.945 10.455 7.945L79.904 55.48z" fill="#ED9F8C"/><path d="M154.2 45.582l20.352-4.043 4.739 11.43 25.37-.557-1.116 15.612 12.685 4.46s-2.369 17.704-3.485 23.28c-.696 3.763-36.242 11.43-36.242 11.43l-31.642-22.721-2.928-19.376L154.2 45.582z" fill="#C66E5D"/><path d="M155.455 112.77l-.558 27.46s.279 5.855 8.643 6.552c8.503.836 13.66 1.115 17.981-.279 2.231-.697 5.576-3.206 6.134-7.109.557-3.903-1.115-31.921-1.115-31.921l-31.085 5.297zm-61.473 0l-.558 27.46s.28 5.855 8.643 6.552c8.503.836 12.824.836 17.982-.279 2.23-.418 5.575-3.206 6.133-7.109.557-3.903-1.115-31.921-1.115-31.921l-31.085 5.297z" fill="#EF9D8E"/><path d="M205.079 82.382l-25.649 7.945 2.37-27.6h-23.697l-.976-25.37c-6.83-.975-13.103-1.254-18.26-1.254-21.885.279-72.067 7.388-73.74 50.042-1.812 46.279 58.546 50.322 79.037 49.625 15.333-.558 63.145-.14 72.903-38.473l-11.988-14.915z" fill="#FCC4AE"/><path d="M91.055 70.394c-5.855.14-17.425 3.903-17.843 16.867-.418 11.57 6.552 20.491 18.818 19.515 10.037-.837 16.867-9.479 16.867-18.121 0-9.2-5.576-18.68-17.842-18.261z" fill="#EF9D8E"/><path d="M83.11 98.412c1.462 0 2.648-4.369 2.648-9.758 0-5.388-1.186-9.757-2.649-9.757-1.462 0-2.648 4.369-2.648 9.757 0 5.39 1.186 9.758 2.648 9.758zm12.127 0c1.462 0 2.648-4.369 2.648-9.758 0-5.388-1.186-9.757-2.648-9.757-1.463 0-2.649 4.369-2.649 9.757 0 5.39 1.186 9.758 2.649 9.758z" fill="#C67566"/><path d="M114.055 53.248s.697-13.381 7.666-12.545c6.97.836 7.946 14.776 7.946 14.776l-15.612-2.23z" fill="#ED9F8C"/><path d="M173.158 112.77l-.558 27.46s.279 5.855 8.643 6.552c8.503.836 13.66 1.115 17.981-.279 2.231-.697 5.576-3.206 6.134-7.109.557-3.903-1.115-31.921-1.115-31.921l-31.085 5.297zm-59.382 0l-.558 27.46s.279 5.855 8.643 6.552c8.503.836 12.545.836 17.982-.279 2.23-.418 5.575-3.206 6.133-7.109.557-3.903-1.115-31.921-1.115-31.921l-31.085 5.297z" fill="#FCC4AE"/><path d="M113.358 133.958l.975-11.431c0-.697-.836-1.115-1.254-.557-2.788 2.648-8.921 8.503-9.2 9.339l9.479 2.649zm59.382-.558l.278-10.455c0-.418-.557-.557-.836-.139-1.673 3.624-5.018 11.151-5.018 11.57 0 .418 5.576-.976 5.576-.976zm-15.613-96.042l3.206 1.533 1.255 23.976-3.485-.14-.976-25.37zM181.8 62.727l3.206 1.673-.697 24.394-5.018 1.533 2.509-27.6zm23.279 19.655l5.715.14 6.552 12.405-.419 2.51-11.848-15.055zM174.552 41.54l4.878 2.09 3.346 9.34h-3.485l-4.739-11.43zM204.8 52.412l3.485 2.51-.976 14.496-3.624-1.394 1.115-15.612z" fill="#EF9D8E"/><path d="M216.509 72.624c.418.14 2.788 3.067 2.788 3.067l-3.345 16.867L214 88.933l2.509-16.309z" fill="#EF9D8E"/><path d="M88.127 61.054c0-2.09.976-4.042 2.23-5.018-.696-.418-1.393-.836-2.23-.836-2.509 0-4.46 2.648-4.46 5.715 0 3.206 1.951 5.715 4.46 5.715.837 0 1.534-.278 2.23-.836-1.393-.837-2.23-2.649-2.23-4.74z" fill="#fff"/><path d="M92.588 61.055c0-2.091-.976-4.043-2.23-5.019-1.394.976-2.23 2.788-2.23 5.019 0 2.23.975 4.042 2.23 5.018a6.788 6.788 0 0 0 2.23-5.018z" fill="#382C2B"/><path d="M102.903 61.054c0-2.09.976-4.042 2.23-5.018-.697-.418-1.394-.836-2.23-.836-2.509 0-4.46 2.648-4.46 5.715 0 3.206 1.951 5.715 4.46 5.715.836 0 1.533-.278 2.23-.836-1.254-.837-2.23-2.649-2.23-4.74z" fill="#fff"/><path d="M107.503 61.055c0-2.091-.976-4.043-2.23-5.019-1.394.976-2.231 2.788-2.231 5.019 0 2.23.976 4.042 2.231 5.018a6.79 6.79 0 0 0 2.23-5.018z" fill="#382C2B"/><path d="M89.103 115.836c-.557-.418.279-2.509 1.394-3.763 2.927-3.624 6.83-5.437 11.43-4.6 3.206.557 8.364 6.412 7.528 7.388-.419.557-4.182-4.043-7.946-4.74-3.485-.697-7.388.837-10.036 3.624-1.255 1.394-2.23 2.231-2.37 2.091z" fill="#7C3F37"/><path d="M210.376 141.903s8.503 8.085 26.206 3.903 15.612-28.018 15.612-28.018L238.952 128.8l-22.025-2.788-6.551 15.891z" fill="#FCC4AE"/><path d="M216.788 126.151l2.927-2.648 21.467 3.485-2.23 1.951-22.164-2.788zm15.055-10.315l3.763-1.672 13.8 5.994-2.23 1.812-15.333-6.134z" fill="#EF9D8E"/><path d="M253.449 151.382c0 3.485-8.922 6.412-19.794 6.412-10.873 0-19.794-2.927-19.794-6.412 0-.697-.419-4.739.139-5.297 2.37-2.649 10.733-1.115 19.655-1.115 9.2 0 17.703-1.255 19.794 1.533.278.418 0 4.321 0 4.879z" fill="#D88E23"/><path d="M233.515 152.915c10.932 0 19.794-2.871 19.794-6.412s-8.862-6.412-19.794-6.412-19.794 2.871-19.794 6.412 8.862 6.412 19.794 6.412z" fill="#FFB031"/><path d="M216.509 149.848l-.279 4.74s.697.557 1.812.976c.279-1.394.558-4.879.558-4.879l-2.091-.837zm6.134 1.952l-.419 4.879s.976.279 2.231.418c.278-1.394.418-4.879.418-4.879l-2.23-.418zm6.133.836l-.418 5.019s1.254.139 2.369.139c.279-1.394.419-4.879.419-4.879l-2.37-.279zm6.133 0l-.418 5.158s1.255 0 2.509-.139c.279-1.394.279-5.019.279-5.019h-2.37zm6.412-.418l-.418 5.158s1.255-.14 2.509-.418c.279-1.394.418-5.019.418-5.019l-2.509.279zm5.715-1.115l-.418 5.158s1.394-.419 2.509-.837c.279-1.394.279-5.018.279-5.018l-2.37.697z" fill="#FFB031"/><path d="M231.146 146.643c-.419 0-.697-.279-.697-.419 0-.139.278-.278.697-.278l2.648.278s3.067.419 4.321-.139c.418-.139.697-.418.697-.697 0-.279-.279-.697-.697-.836-1.254-.697-3.763-.837-3.763-.837l-2.928-.279c-.418 0-.697-.278-.697-.418 0-.139.279-.278.697-.278l2.928.278c.139 0 3.206.279 4.878 1.115.837.419 1.116.976 1.116 1.394 0 .558-.419.837-1.116 1.116-1.812.557-5.297.139-5.436.139l-2.648-.139z" fill="#DB9821"/><path d="M230.727 150.267c-.418 0-.696-.279-.696-.418l.557-6.691c0-.14.418-.279.836-.279.419 0 .697.279.697.418l-.557 6.691c0 .139-.418.279-.837.279z" fill="#DB9821"/><path d="M227.8 147.897c-.418 0-.697-.279-.697-.418 0-.139.418-.279.837-.279l7.387.837c.419 0 .697.278.697.418 0 .139-.418.279-.836.279l-7.388-.837z" fill="#DB9821"/></g><defs><clipPath id="clip0"><path fill="#fff" d="M30 0h241.291v184H30z"/></clipPath></defs></svg>