<svg width="135" height="40" fill="none" xmlns="http://www.w3.org/2000/svg"><path fill-rule="evenodd" clip-rule="evenodd" d="M30.128 19.782c-.029-3.223 2.64-4.79 2.761-4.864-1.51-2.203-3.853-2.505-4.676-2.528-1.967-.207-3.874 1.177-4.877 1.177-1.022 0-2.565-1.157-4.227-1.122-2.14.033-4.143 1.272-5.24 3.195-2.266 3.923-.576 9.688 1.594 12.86 1.086 1.552 2.355 3.286 4.016 3.225 1.625-.067 2.232-1.036 4.193-1.036 1.943 0 2.513 1.036 4.207.997 1.744-.028 2.842-1.56 3.89-3.127 1.255-1.78 1.76-3.533 1.78-3.623-.042-.014-3.388-1.29-3.42-5.154zm-3.2-9.477c.874-1.093 1.472-2.58 1.306-4.09-1.265.057-2.848.875-3.758 1.945-.806.942-1.526 2.486-1.34 3.938 1.421.105 2.88-.717 3.792-1.793zm22.828 15.649l-1.125-3.475c-.119-.355-.343-1.191-.672-2.507h-.04a99.018 99.018 0 0 1-.63 2.507l-1.107 3.475h3.574zm3.89 5.55h-2.27l-1.245-3.91h-4.324l-1.185 3.91h-2.21l4.283-13.309h2.646l4.305 13.308zm8.844-4.84c0-.934-.21-1.704-.631-2.31-.461-.63-1.08-.948-1.856-.948-.526 0-1.004.176-1.431.524a2.42 2.42 0 0 0-.84 1.373c-.065.263-.098.48-.098.65v1.6c0 .698.214 1.287.642 1.767.427.481.984.721 1.668.721.803 0 1.428-.31 1.876-.928.447-.619.67-1.435.67-2.449zm2.173-.078c0 1.632-.441 2.922-1.323 3.869-.79.843-1.77 1.264-2.942 1.264-1.263 0-2.172-.454-2.724-1.363h-.04v5.055h-2.132V25.065c0-1.026-.027-2.079-.08-3.159h1.876l.119 1.521h.039c.71-1.146 1.79-1.718 3.238-1.718 1.132 0 2.077.447 2.834 1.342.757.896 1.135 2.074 1.135 3.535zm8.865.078c0-.934-.211-1.704-.633-2.31-.461-.63-1.078-.948-1.855-.948-.528 0-1.004.176-1.432.524a2.423 2.423 0 0 0-.838 1.373c-.066.263-.1.48-.1.65v1.6c0 .698.215 1.287.64 1.767.429.481.986.721 1.67.721.804 0 1.429-.31 1.876-.928.447-.619.672-1.435.672-2.449zm2.172-.078c0 1.632-.442 2.922-1.324 3.869-.789.843-1.77 1.264-2.942 1.264-1.263 0-2.172-.454-2.724-1.363h-.039v5.055h-2.132V25.065c0-1.026-.027-2.079-.079-3.159h1.875l.119 1.521h.039c.711-1.146 1.789-1.718 3.238-1.718 1.131 0 2.076.447 2.834 1.342.756.896 1.135 2.074 1.135 3.535zm12.34 1.185c0 1.132-.394 2.053-1.183 2.764-.867.777-2.074 1.165-3.625 1.165-1.43 0-2.58-.277-3.449-.829l.494-1.778c.936.567 1.963.85 3.082.85.803 0 1.428-.182 1.877-.544.448-.362.67-.848.67-1.454 0-.54-.183-.995-.553-1.365-.367-.369-.98-.71-1.835-1.029-2.33-.869-3.495-2.14-3.495-3.816 0-1.094.41-1.99 1.225-2.69.814-.698 1.9-1.048 3.258-1.048 1.211 0 2.217.211 3.02.632l-.534 1.738c-.75-.408-1.598-.613-2.547-.613-.75 0-1.336.185-1.756.554a1.58 1.58 0 0 0-.533 1.204c0 .526.203.961.612 1.303.355.316 1 .658 1.935 1.027 1.145.461 1.986 1 2.527 1.618.54.62.81 1.39.81 2.311zm7.048-4.265h-2.35v4.66c0 1.184.414 1.777 1.245 1.777.38 0 .697-.034.947-.099l.058 1.62c-.42.156-.972.235-1.658.235-.842 0-1.5-.256-1.974-.769-.473-.514-.71-1.376-.71-2.587v-4.837h-1.402v-1.6h1.401V20.15l2.093-.632v2.39h2.35v1.6zm8.391 3.189c0-.884-.189-1.643-.572-2.276-.447-.767-1.086-1.15-1.914-1.15-.858 0-1.508.384-1.955 1.15-.383.633-.573 1.404-.573 2.316 0 .886.19 1.645.573 2.277.46.765 1.105 1.148 1.935 1.148.815 0 1.453-.39 1.914-1.168.395-.646.592-1.413.592-2.297zm2.213-.069c0 1.474-.422 2.685-1.264 3.632-.883.975-2.054 1.461-3.515 1.461-1.409 0-2.53-.466-3.366-1.401-.836-.935-1.254-2.113-1.254-3.534 0-1.487.43-2.705 1.293-3.653.862-.948 2.024-1.421 3.485-1.421 1.408 0 2.541.466 3.396 1.402.817.908 1.225 2.079 1.225 3.514zm6.929-2.844a3.702 3.702 0 0 0-.672-.059c-.75 0-1.33.284-1.738.85-.356.5-.533 1.132-.533 1.895v5.035h-2.131l.019-6.575c0-1.106-.027-2.113-.08-3.021h1.858l.078 1.836h.058c.225-.631.58-1.139 1.067-1.52a2.581 2.581 0 0 1 1.541-.513c.197 0 .375.013.533.039v2.033zm7.502 1.916c.014-.632-.125-1.178-.414-1.64-.369-.591-.936-.887-1.699-.887-.698 0-1.264.289-1.698.869-.355.46-.566 1.013-.63 1.658h4.441zm2.033.552a5 5 0 0 1-.078.968h-6.396c.025.948.334 1.672.927 2.172.539.447 1.237.67 2.092.67.947 0 1.811-.15 2.588-.453l.334 1.48c-.908.396-1.98.593-3.217.593-1.488 0-2.656-.438-3.506-1.314-.847-.875-1.273-2.05-1.273-3.523 0-1.448.394-2.654 1.185-3.614.829-1.026 1.948-1.54 3.356-1.54 1.383 0 2.43.514 3.141 1.54.564.817.847 1.823.847 3.021zM48.694 13.169c-.29.15-.93.3-1.74.3-2.138 0-3.438-1.34-3.438-3.388 0-2.219 1.539-3.558 3.599-3.558.809 0 1.389.169 1.639.299l-.27.98c-.32-.14-.76-.26-1.32-.26-1.368 0-2.36.859-2.36 2.479 0 1.479.87 2.428 2.35 2.428.5 0 1.019-.1 1.34-.25l.2.97zm2.562-4.668v2.02h.18l1.5-2.02h1.46l-1.94 2.14c.67.1 1.078.63 1.408 1.409.151.36.33.898.55 1.318h-1.279c-.13-.21-.27-.57-.449-1.039-.26-.66-.63-.98-1.27-.98h-.16v2.02h-1.229V8.5h1.23zm6.891 2.489c-.87-.02-1.699.17-1.699.91 0 .48.31.698.7.698.49 0 .85-.319.96-.669a.95.95 0 0 0 .04-.27v-.67zm.16 2.378l-.08-.54h-.03c-.3.38-.81.65-1.44.65-.978 0-1.529-.71-1.529-1.449 0-1.229 1.09-1.85 2.89-1.839v-.08c0-.32-.13-.85-.99-.85-.48 0-.98.15-1.31.36l-.24-.799c.36-.22.99-.43 1.76-.43 1.559 0 2.008.99 2.008 2.05v1.757c0 .44.02.87.07 1.17h-1.11zm3.727-4.867v1.53c0 .58.21.92.85.92.309 0 .629-.12.829-.27V8.5h1.229v4.867h-1.23V11.5h-.02c-.31.2-.808.33-1.268.33-.99 0-1.62-.539-1.62-1.668V8.5h1.23zm7.237 2.489c-.869-.02-1.699.17-1.699.91 0 .48.31.698.7.698.49 0 .85-.319.96-.669.03-.09.04-.19.04-.27v-.67zm.16 2.378l-.08-.54h-.03c-.3.38-.81.65-1.439.65-.979 0-1.529-.71-1.529-1.449 0-1.229 1.09-1.85 2.889-1.839v-.08c0-.32-.13-.85-.99-.85-.48 0-.98.15-1.308.36l-.24-.799c.359-.22.989-.43 1.758-.43 1.56 0 2.008.99 2.008 2.05v1.757c0 .44.022.87.072 1.17h-1.11zm6.339-4.867v.95h-1.459v3.917h-1.229V9.45h-1.459v-.949h4.147zm2.428 4.039c.16.02.32.04.57.04.57 0 1.29-.19 1.29-.88 0-.71-.76-.87-1.31-.87-.21 0-.38.02-.55.05v1.66zm.01-4.039v1.54c.2-.04.52-.06.78-.06 1.12 0 2.3.38 2.3 1.668 0 .57-.24.96-.602 1.22-.579.44-1.499.55-2.228.55-.52 0-1.038-.03-1.48-.07V8.502h1.23zm8.101 0v1.75c0 .77-.03 1.289-.07 1.969h.03c.26-.57.41-.93.659-1.44l1.2-2.279h1.489v4.867h-1.17V11.63c0-.778.03-1.138.08-2.059h-.04c-.24.58-.4.93-.64 1.4-.38.72-.818 1.6-1.238 2.398h-1.47V8.502h1.17zm5.47 1.969h.59c.67 0 1.059-.27 1.059-.62 0-.349-.33-.589-.88-.589-.41 0-.86.14-1.2.35l-.258-.73c.53-.33 1.189-.48 1.819-.48.819 0 1.818.32 1.818 1.29 0 .63-.56.98-1.07 1.1v.02c.65.07 1.29.46 1.29 1.178 0 1.13-1.27 1.48-2.27 1.48-.638 0-1.278-.16-1.757-.44l.28-.78c.34.18.859.33 1.349.33.679 0 1.049-.28 1.049-.66 0-.51-.53-.669-1.22-.669h-.6v-.78z" fill="#fff"/></svg>