<svg width="135" height="40" fill="none" xmlns="http://www.w3.org/2000/svg"><path fill-rule="evenodd" clip-rule="evenodd" d="M68.14 21.75A4.25 4.25 0 1 0 72.41 26a4.19 4.19 0 0 0-4.27-4.25zm0 6.83a2.58 2.58 0 1 1 2.4-2.58 2.46 2.46 0 0 1-2.4 2.58zm-9.31-6.83A4.25 4.25 0 1 0 63.09 26a4.19 4.19 0 0 0-4.27-4.25h.01zm0 6.83A2.58 2.58 0 1 1 61.22 26a2.46 2.46 0 0 1-2.4 2.58h.01zm-11.09-5.52v1.8h4.32a3.77 3.77 0 0 1-1 2.27 4.42 4.42 0 0 1-3.33 1.32 4.8 4.8 0 1 1 0-9.6A4.6 4.6 0 0 1 51 20.14l1.27-1.27A6.29 6.29 0 0 0 47.74 17a6.61 6.61 0 1 0 0 13.21 6 6 0 0 0 4.61-1.85 6 6 0 0 0 1.56-4.22 5.875 5.875 0 0 0-.1-1.13l-6.07.05zm45.31 1.4a4 4 0 0 0-3.64-2.71 4 4 0 0 0-4 4.25 4.16 4.16 0 0 0 4.22 4.25 4.23 4.23 0 0 0 3.54-1.88l-1.45-1a2.43 2.43 0 0 1-2.09 1.18 2.16 2.16 0 0 1-2.06-1.29l5.69-2.35-.21-.45zm-5.8 1.42a2.33 2.33 0 0 1 2.22-2.48 1.65 1.65 0 0 1 1.58.9l-3.8 1.58zM82.63 30h1.87V17.5h-1.87V30zm-3.06-7.3h-.07a3 3 0 0 0-2.24-1 4.26 4.26 0 0 0 0 8.51 2.9 2.9 0 0 0 2.24-1h.06v.61c0 1.63-.87 2.5-2.27 2.5a2.35 2.35 0 0 1-2.14-1.51l-1.63.68A4.05 4.05 0 0 0 77.29 34c2.19 0 4-1.29 4-4.43V22h-1.72v.7zm-2.14 5.88a2.59 2.59 0 0 1 0-5.16A2.4 2.4 0 0 1 79.7 26a2.38 2.38 0 0 1-2.28 2.58h.01zm24.38-11.08h-4.48V30h1.87v-4.74h2.61a3.89 3.89 0 1 0 0-7.76zm0 6H99.2v-4.26h2.65a2.145 2.145 0 1 1 0 4.29l-.04-.03zm11.53-1.8a3.5 3.5 0 0 0-3.33 1.91l1.66.69a1.77 1.77 0 0 1 1.7-.92 1.8 1.8 0 0 1 2 1.61v.13a4.127 4.127 0 0 0-1.95-.48c-1.79 0-3.6 1-3.6 2.81a2.891 2.891 0 0 0 3.1 2.75c.96.07 1.88-.39 2.4-1.2h.06v1h1.8v-4.81c0-2.19-1.66-3.46-3.79-3.46l-.05-.03zm-.23 6.85c-.61 0-1.46-.31-1.46-1.06 0-1 1.06-1.33 2-1.33a3.318 3.318 0 0 1 1.7.42 2.26 2.26 0 0 1-2.19 2l-.05-.03zM123.74 22l-2.14 5.42h-.06L119.32 22h-2l3.33 7.58-1.9 4.21h1.95L125.82 22h-2.08zm-16.81 8h1.87V17.5h-1.87V30z" fill="#fff"/><path fill-rule="evenodd" clip-rule="evenodd" d="M10.44 7.54a2 2 0 0 0-.44 1.4v22.12a2 2 0 0 0 .46 1.4l.07.07L22.9 20.15v-.29L10.51 7.47l-.07.07z" fill="url(#paint0_linear)"/><path fill-rule="evenodd" clip-rule="evenodd" d="M27 24.28l-4.1-4.13v-.29l4.1-4.14.09.05L32 18.56c1.4.79 1.4 2.09 0 2.89l-4.89 2.78-.11.05z" fill="url(#paint1_linear)"/><path fill-rule="evenodd" clip-rule="evenodd" d="M27.12 24.22L22.9 20 10.44 32.46a1.63 1.63 0 0 0 2.08.06l14.61-8.3" fill="url(#paint2_linear)"/><path fill-rule="evenodd" clip-rule="evenodd" d="M27.12 15.78l-14.61-8.3a1.63 1.63 0 0 0-2.08.06L22.9 20l4.22-4.22z" fill="url(#paint3_linear)"/><path opacity=".2" fill-rule="evenodd" clip-rule="evenodd" d="M27 24.13l-14.49 8.25a1.67 1.67 0 0 1-2 0l-.07.07.07.07a1.66 1.66 0 0 0 2 0l14.61-8.3-.12-.09z" fill="#000"/><path opacity=".12" fill-rule="evenodd" clip-rule="evenodd" d="M10.44 32.32a2 2 0 0 1-.46-1.4v.15a2 2 0 0 0 .46 1.4l.07-.07-.07-.08zM32 21.3l-5 2.83.09.09L32 21.44A1.75 1.75 0 0 0 33 20a1.86 1.86 0 0 1-1 1.3z" fill="#000"/><path opacity=".25" fill-rule="evenodd" clip-rule="evenodd" d="M12.51 7.62L32 18.7a1.86 1.86 0 0 1 1 1.3 1.75 1.75 0 0 0-1-1.44L12.51 7.48C11.12 6.68 10 7.34 10 8.94v.15c0-1.6 1.12-2.26 2.51-1.47z" fill="#000"/><path fill-rule="evenodd" clip-rule="evenodd" d="M46.73 13.17a4.26 4.26 0 0 1-1.74.3 3.18 3.18 0 0 1-3.44-3.39 3.39 3.39 0 0 1 3.6-3.56 3.87 3.87 0 0 1 1.64.3l-.27 1a3.27 3.27 0 0 0-1.32-.26A2.24 2.24 0 0 0 42.84 10a2.21 2.21 0 0 0 2.35 2.43 3.44 3.44 0 0 0 1.34-.25l.2.99zm2.56-4.67v2h.18l1.5-2h1.46l-1.94 2.14c.67.1 1.08.63 1.41 1.41.15.36.33.9.55 1.32h-1.28a7.238 7.238 0 0 1-.45-1 1.28 1.28 0 0 0-1.27-1h-.16v2h-1.23V8.5h1.23zm7.05 4.87l-.08-.54a1.81 1.81 0 0 1-1.44.65A1.44 1.44 0 0 1 53.26 12c0-1.23 1.09-1.85 2.89-1.84v-.08c0-.32-.13-.85-1-.85a2.58 2.58 0 0 0-1.31.36l-.24-.8a3.51 3.51 0 0 1 1.76-.43 1.82 1.82 0 0 1 2 2v1.84c-.005.39.018.782.07 1.17h-1.09zM56.18 11c-.87 0-1.7.17-1.7.91a.64.64 0 0 0 .7.7 1 1 0 0 0 1-.67.912.912 0 0 0 0-.27V11zm3.88-2.5V10c0 .58.21.92.85.92a1.47 1.47 0 0 0 .83-.27V8.5H63v4.87h-1.26V11.5a2.52 2.52 0 0 1-1.27.33 1.48 1.48 0 0 1-1.62-1.67V8.5h1.21zm7.4 4.87l-.08-.54a1.81 1.81 0 0 1-1.44.65A1.44 1.44 0 0 1 64.38 12c0-1.23 1.09-1.85 2.89-1.84v-.08c0-.32-.13-.85-1-.85a2.57 2.57 0 0 0-1.27.39l-.24-.8a3.5 3.5 0 0 1 1.76-.43 1.82 1.82 0 0 1 2 2v1.81c-.006.391.017.782.07 1.17h-1.13zM67.3 11c-.87 0-1.7.17-1.7.91a.65.65 0 0 0 .7.7 1 1 0 0 0 1-.67.88.88 0 0 0 0-.27V11zm6.5-2.5v.95h-1.46v3.92h-1.23V9.45h-1.46V8.5h4.15zm2.44 0V10c.253-.021.507-.021.76 0 1.12 0 2.3.38 2.3 1.67a1.42 1.42 0 0 1-.6 1.22 3.88 3.88 0 0 1-2.23.55c-.52 0-1 0-1.48-.07V8.5h1.25zm0 4c.19.014.38.014.57 0 .57 0 1.29-.19 1.29-.88s-.76-.87-1.31-.87a3.062 3.062 0 0 0-.55 0v1.75zm8.1-4v1.75c0 .77 0 1.29-.07 2 .26-.57.41-.93.66-1.44l1.2-2.28h1.49v4.87h-1.14v-1.77c0-.78 0-1.14.08-2.06-.24.58-.4.93-.64 1.4-.38.72-.82 1.6-1.24 2.4h-1.51V8.5h1.17zm5.47 1.97h.59c.67 0 1.06-.27 1.06-.62s-.33-.59-.88-.59a2.4 2.4 0 0 0-1.2.35l-.26-.73a3.49 3.49 0 0 1 1.82-.48c.82 0 1.82.32 1.82 1.29a1.22 1.22 0 0 1-1.07 1.1A1.28 1.28 0 0 1 93 12c0 1.13-1.27 1.48-2.27 1.48A3.58 3.58 0 0 1 89 13l.28-.78c.419.211.88.324 1.35.33.68 0 1-.28 1-.66s-.53-.67-1.22-.67h-.6v-.75z" fill="#fff"/><defs><linearGradient id="paint0_linear" x1="17.48" y1="-7.582" x2="-2.355" y2="-2.322" gradientUnits="userSpaceOnUse"><stop stop-color="#00A0FF"/><stop offset=".01" stop-color="#00A1FF"/><stop offset=".26" stop-color="#00BEFF"/><stop offset=".51" stop-color="#00D2FF"/><stop offset=".76" stop-color="#00DFFF"/><stop offset="1" stop-color="#00E3FF"/></linearGradient><linearGradient id="paint1_linear" x1="33.83" y1="9.8" x2="9.64" y2="9.8" gradientUnits="userSpaceOnUse"><stop stop-color="#FFE000"/><stop offset=".41" stop-color="#FFBD00"/><stop offset=".78" stop-color="orange"/><stop offset="1" stop-color="#FF9C00"/></linearGradient><linearGradient id="paint2_linear" x1="10.074" y1="13.527" x2="-5.862" y2="40.334" gradientUnits="userSpaceOnUse"><stop stop-color="#FF3A44"/><stop offset="1" stop-color="#C31162"/></linearGradient><linearGradient id="paint3_linear" x1=".71" y1="4.096" x2="7.823" y2="16.067" gradientUnits="userSpaceOnUse"><stop stop-color="#32A071"/><stop offset=".07" stop-color="#2DA771"/><stop offset=".48" stop-color="#15CF74"/><stop offset=".8" stop-color="#06E775"/><stop offset="1" stop-color="#00F076"/></linearGradient></defs></svg>