<svg width="184" height="184" fill="none" xmlns="http://www.w3.org/2000/svg"><g clip-path="url(#clip0)"><path d="M111.948 7.098S45.346.873 17.986 47.5c-18.313 31.34-18.749 68.14.654 91.727 33.464 40.731 89.057 34.835 130.479 20.093 37.497-13.322 35.753-60.824 34.336-80.152-1.962-25.88-24.635-66.502-71.507-72.071z" fill="#F5F5FF"/><path d="M153.37 157.792s.545-44.444-18.858-60.823c-7.085-6.006-16.569-10.92-29.322-13.104-21.801-2.293-30.522-.874-30.522-.874s-36.08 9.61-41.313 36.8c-2.289 12.23-.326 33.852 7.304 48.703 10.9 21.294 31.066 15.724 39.569 11.247 3.706-1.965 7.63-4.805 12.317-8.408 40.005-3.931 60.825-13.541 60.825-13.541z" fill="#537CC7"/><path d="M67.365 41.168s-6.104 24.46 5.995 31.23c12.1 6.771 11.119-17.69 11.119-17.69l-17.114-13.54z" fill="#353338"/><path d="M64.204 87.031s11.336 46.301 12.971 60.606c15.915-16.598 23.654-31.777 23.654-31.777l6.758 1.638 6.432-6.989-4.251-25.88s-12.863-4.368-22.455-4.15c-9.593.219-23.11 6.552-23.11 6.552z" fill="#F98E70"/><path d="M69.981 37.674c.109.655 2.398 38.547 27.36 34.943 24.962-3.603 19.621-28.282 18.858-38.11-.763-9.828-10.246-25.662-23.981-21.84-13.735 3.822-23.436 11.684-22.237 25.007z" fill="#FBBB9D"/><path d="M75.976 60.169s-.436 20.529-1.308 22.822c-.872 2.402 4.906 17.909 17.005 18.127 12.1.218 13.517-17.363 13.517-17.363l1.744-20.966-30.958-2.62z" fill="#FBBB9D"/><path d="M106.389 69.45s-19.403 8.19-30.413-7.316l-.327 13.978s20.602 11.138 30.74-6.661z" fill="#EFA689"/><path d="M101.156 23.805s-9.265 9.938-23.872 14.305c0 0 4.688 14.96-1.744 22.495 0 0-8.72-3.385-8.066-24.57.654-21.402 24.962-25.115 24.962-25.115s17.005.328 22.891 10.374c5.886 10.046 1.744 20.857 1.744 20.857s-3.488-15.725-15.915-18.346z" fill="#353338"/><path d="M113.365 22.276l-5.341-17.144c-.981-3.166-4.143-5.35-7.413-5.023L89.275.874c-1.744.109-3.38.764-4.796 1.747L79.9 5.787c.545 2.949 2.944 18.346 3.816 23.915l29.649-7.426z" fill="#E8E8E8"/><path d="M66.166 20.093l1.417 13.54 16.242-4.04c-.873-5.57-3.27-20.966-3.816-23.915l-10.464 7.098c-2.398 1.638-3.706 4.477-3.38 7.317z" fill="#D8D8D8"/><path d="M67.583 33.633l49.815-8.845 6.758-5.241c2.399-1.31 1.963-5.023-.763-5.679l-8.502-1.965c-7.194-1.638-14.825-.219-20.929 3.931l-26.379 17.8z" fill="#B2ACAB"/><path d="M109.332 39.202a2.986 2.986 0 0 0-.872 2.075 3.05 3.05 0 0 0 3.052 3.057h.327c-.545.656-1.417.983-2.289.983-1.744 0-3.052-1.42-3.052-3.057.109-1.53 1.308-2.84 2.834-3.058z" fill="#fff"/><path d="M108.569 41.386c0-.873.327-1.529.872-2.075h.327c1.744 0 3.052 1.42 3.052 3.058 0 .874-.327 1.529-.872 2.075h-.327c-1.744 0-3.052-1.31-3.052-3.058z" fill="#302735"/><path d="M90.692 40.622a2.986 2.986 0 0 0-.872 2.075 3.05 3.05 0 0 0 3.052 3.057h.327c-.545.656-1.417.983-2.289.983-1.744 0-3.052-1.42-3.052-3.057.109-1.638 1.308-2.84 2.834-3.058z" fill="#fff"/><path d="M89.929 42.697c0-.874.327-1.529.872-2.075h.327c1.744 0 3.052 1.42 3.052 3.058 0 .873-.327 1.528-.872 2.074h-.327c-1.744.11-3.052-1.31-3.052-3.057z" fill="#302735"/><path d="M86.441 38.547c-.436 0-.872-.109-1.2-.327-.326-.219-.544-.874-.326-1.202.109-.218.436-.327.763-.436 2.834-.765 5.777-.765 8.72-.874.654 0 1.308 0 1.962.328.436.218.763.764.654 1.31-.109.655-.872.874-1.417.874a42.857 42.857 0 0 1-9.156.327zm19.621-3.057c2.18-.11 4.469.109 6.649.436.545.11 1.308.328 1.308.874s-.654.873-1.09.983c-2.616.546-5.232.546-7.848.218-.545-.11-1.09-.218-1.308-.655-.218-.437 0-1.092.436-1.42.436-.327.981-.327 1.526-.437.545-.109-.218.11.327 0z" fill="#353338"/><path d="M102.683 46.628c-.654-.983-.981-2.293-.981-3.494 0-.437.218-.437.327 0 .218.546.436 1.092.763 1.529.654.873 1.417 1.528 2.289 2.074.654.437 1.417.874 1.744 1.53.654 1.091.327 2.62-.654 3.493-.763.765-1.853 1.092-2.943 1.202-.218 0-.327-.219-.109-.328.654-.655 1.308-1.42 1.417-2.402 0-.655-.327-1.42-.654-1.966-.327-.437-.872-.983-1.199-1.638zm-3.598 15.506c-2.616 0-5.45-.873-7.848-3.93-.218-.328-.218-.874.109-1.093.327-.218.872-.218 1.09.11 3.161 3.93 6.976 3.603 9.919 2.948.436-.11.872.109.981.546.109.436-.109.873-.545.982-1.199.219-2.398.437-3.706.437z" fill="#EFA689"/><path d="M67.583 33.633s-10.028 12.449-1.09 27.3c8.939 14.851 6.54-23.587 6.54-23.587l-5.45-3.713z" fill="#353338"/><path d="M70.199 45.973s-1.962-3.167-4.142-1.31c-2.507 2.184 1.417 8.517 3.597 8.517.872-2.948.545-7.207.545-7.207zm77.502 52.197s6.868-1.748 6.541-4.914c-.327-3.167-6.541-3.167-6.541-3.167s5.451-1.966 5.124-4.805c-.436-4.914-21.147-1.747-21.147-1.747s1.744-9.173 2.289-12.886c1.09-6.988-.436-9.827-1.853-10.81v.109s-.436 7.862-4.36 7.644h-.218c-.109.328-.218.764-.327 1.092-.981 3.057-6.105 13.431-7.195 15.397-1.199 1.966-6.322 15.288-9.047 21.075-2.289 4.805-7.303 14.633-7.303 14.633s3.815 3.276 8.175 5.46c4.033 1.965 9.919 2.075 9.919 2.075l6.868-12.667s20.602-2.294 21.365-6.116c.545-2.62-4.361-3.057-4.361-3.057s7.958-.437 7.958-4.477c-.109-3.276-5.887-2.84-5.887-2.84z" fill="#FBBB9D"/><path d="M132.223 59.95c-.763-.655-1.417-.655-1.635-.546-1.744 1.529-2.071 4.914-2.943 8.08h.218c3.924.329 4.36-7.534 4.36-7.534z" fill="#FFE1D7"/><path d="M55.592 133.004s5.45 22.823 9.375 24.461c4.033-3.167 8.72-6.224 12.753-10.374-6.213-.546-16.35-6.443-22.128-14.087zm49.925-16.816s-3.815-1.42-4.687-.328c-.872 1.092 2.834 3.931 2.834 3.931l1.853-3.603zm17.876 7.971s3.053 1.857 2.835 2.839c-.219.983-4.47.328-4.47.328l1.635-3.167z" fill="#325B96"/><path d="M122.303 137.481s5.341 26.536 5.886 28.065c-7.521 2.293-27.251 5.678-35.535 5.787 0 0 20.166-14.305 29.649-33.852z" fill="#F98E70"/><path d="M46.327 40.95c-8.175-5.351-19.076-6.334-28.123-2.512C9.156 42.26 2.289 50.778.436 60.387-1.744 72.18 4.251 85.393 15.261 89.98c7.412 3.057 16.241 1.965 23.109-2.075 6.867-4.04 11.99-10.81 14.933-18.346 2.943-7.643 3.488-17.035-1.417-23.587-1.526-2.074-3.488-3.712-5.559-5.023z" fill="#E4ED6B"/><path d="M19.185 72.945c1.308 2.402 3.488 5.241 6.213 3.713.545-.328 1.09-.874 1.526-1.42L38.48 58.749c1.962-2.73 3.924-5.57 5.123-8.736.327-.764-.327-1.529-1.09-1.42-.763.11-1.526.546-2.29.983-6.54 4.259-12.208 9.719-16.677 16.162-2.943-4.587-6.54-8.845-10.683-12.34-.871-.764-2.07-.218-2.18.874-.218 2.075.873 4.368 1.854 6.333 2.289 4.26 4.469 8.3 6.649 12.34z" fill="#F7F9A7"/></g><defs><clipPath id="clip0"><path fill="#fff" d="M0 0h184v184H0z"/></clipPath></defs></svg>