<?xml version="1.0" encoding="UTF-8"?> <svg xmlns="http://www.w3.org/2000/svg" width="500" height="500" viewBox="0 0 500 500" fill="none"> <rect width="500" height="500" fill="white"></rect> <g clip-path="url(#clip0)"> <path fill-rule="evenodd" clip-rule="evenodd" d="M354.957 435.515C379.057 416.084 421.928 373.466 436.137 345.956C482.359 256.357 473.074 170.313 430.244 86.2887C431.051 85.602 430.809 86.2483 431.535 85.4808C482.924 170.515 481.955 273.485 436.622 353.753C422.009 379.647 387.09 415.802 364.605 434.263C362.021 435.354 355.805 436.767 354.957 435.515Z" fill="#FFBE18"></path> <path fill-rule="evenodd" clip-rule="evenodd" d="M448.328 123.171C448.328 123.171 435.047 115.415 422.896 94.0853C418.658 86.6523 412.966 66.8985 415.025 65.2827C418.416 62.6165 434.845 78.977 438.64 85.4808C455.514 114.647 448.328 123.171 448.328 123.171Z" fill="#FFBE18"></path> <path fill-rule="evenodd" clip-rule="evenodd" d="M460.48 161.224C460.48 161.224 454.142 147.772 456.483 124.584C457.291 116.505 463.992 98.1248 466.576 98.044C470.855 97.9228 474.851 119.696 474.165 126.847C471.177 158.719 460.48 161.224 460.48 161.224Z" fill="#FFBE18"></path> <path fill-rule="evenodd" clip-rule="evenodd" d="M407.638 111.254C407.638 111.254 412.886 124.544 431.172 139.854C437.55 145.187 455.353 154.599 457.21 153.185C460.278 150.842 447.4 132.906 441.789 128.18C416.882 106.972 407.638 111.254 407.638 111.254Z" fill="#FFBE18"></path> <path fill-rule="evenodd" clip-rule="evenodd" d="M467.907 206.952C467.907 206.952 463.588 191.36 470.612 166.92C473.074 158.396 483.853 139.935 486.678 140.339C491.361 140.985 491.482 165.102 489.424 172.656C480.018 206.266 467.907 206.952 467.907 206.952Z" fill="#FFBE18"></path> <path fill-rule="evenodd" clip-rule="evenodd" d="M414.258 144.702C414.258 144.702 419.223 158.921 437.954 175.888C444.494 181.826 462.982 192.531 465.001 191.117C468.351 188.774 455.514 169.303 449.822 164.052C424.229 140.582 414.258 144.702 414.258 144.702Z" fill="#FFBE18"></path> <path fill-rule="evenodd" clip-rule="evenodd" d="M466.938 252.802C466.938 252.802 465.404 236.805 476.667 214.103C480.583 206.185 494.55 189.986 497.255 190.875C501.776 192.329 497.699 215.961 494.268 222.95C479.089 254.216 466.938 252.802 466.938 252.802Z" fill="#FFBE18"></path> <path fill-rule="evenodd" clip-rule="evenodd" d="M418.86 178.837C418.86 178.837 422.21 194.753 440.134 215.557C446.391 222.828 464.92 236.846 467.302 235.634C471.298 233.614 460.076 210.952 454.666 204.529C430.284 175.807 418.86 178.837 418.86 178.837Z" fill="#FFBE18"></path> <path fill-rule="evenodd" clip-rule="evenodd" d="M457.936 297.481C457.936 297.481 459.228 281.565 474.366 261.286C479.654 254.216 496.326 240.805 498.829 242.097C503.068 244.279 494.833 266.699 490.271 272.96C469.724 300.955 457.936 297.481 457.936 297.481Z" fill="#FFBE18"></path> <path fill-rule="evenodd" clip-rule="evenodd" d="M420.031 214.668C420.031 214.668 421.04 230.786 435.774 253.812C440.901 261.851 457.291 278.333 459.874 277.485C464.153 276.071 456.362 252.196 451.881 245.087C431.859 213.376 420.031 214.668 420.031 214.668Z" fill="#FFBE18"></path> <path fill-rule="evenodd" clip-rule="evenodd" d="M441.144 339.614C441.144 339.614 445.221 324.264 463.79 307.055C470.249 301.036 489.141 290.775 491.442 292.512C495.237 295.38 483.167 315.902 477.515 321.234C452.204 345.027 441.144 339.614 441.144 339.614Z" fill="#FFBE18"></path> <path fill-rule="evenodd" clip-rule="evenodd" d="M418.497 252.843C418.497 252.843 416.64 268.8 427.216 293.845C430.89 302.571 444.251 321.517 446.956 321.153C451.437 320.507 447.925 295.825 444.736 288.109C430.445 253.611 418.497 252.843 418.497 252.843Z" fill="#FFBE18"></path> <path fill-rule="evenodd" clip-rule="evenodd" d="M417.124 377.95C417.124 377.95 423.865 363.65 445.301 349.996C452.769 345.229 473.276 338.443 475.254 340.503C478.524 343.977 462.982 361.953 456.402 366.195C427.135 385.181 417.124 377.95 417.124 377.95Z" fill="#FFBE18"></path> <path fill-rule="evenodd" clip-rule="evenodd" d="M410.302 289.886C410.302 289.886 405.66 305.156 411.755 331.494C413.895 340.664 423.785 361.509 426.53 361.59C431.092 361.711 431.939 336.988 430.123 328.869C422.009 292.674 410.302 289.886 410.302 289.886Z" fill="#FFBE18"></path> <path fill-rule="evenodd" clip-rule="evenodd" d="M386.565 411.358C386.565 411.358 395.769 398.512 419.385 388.857C427.62 385.504 449.176 382.354 450.751 384.737C453.375 388.696 434.805 403.602 427.579 406.632C395.204 420.124 386.565 411.358 386.565 411.358Z" fill="#FFBE18"></path> <path fill-rule="evenodd" clip-rule="evenodd" d="M395.648 324.708C395.648 324.708 388.382 338.846 389.795 365.67C390.279 375.001 396.456 397.098 399.16 397.664C403.641 398.593 408.808 374.516 408.445 366.276C406.75 329.475 395.648 324.708 395.648 324.708Z" fill="#FFBE18"></path> <path fill-rule="evenodd" clip-rule="evenodd" d="M145.048 435.515C120.949 416.084 78.0776 373.466 63.868 345.956C17.6464 256.357 26.9311 170.313 69.7617 86.2887C68.9543 85.602 69.1966 86.2483 68.4699 85.4808C17.0813 170.515 18.0501 273.485 63.3835 353.753C77.9968 379.647 112.915 415.802 135.4 434.263C137.984 435.354 144.201 436.767 145.048 435.515Z" fill="#FFBE18"></path> <path fill-rule="evenodd" clip-rule="evenodd" d="M51.677 123.171C51.677 123.171 64.9581 115.415 77.109 94.0853C81.3476 86.6523 87.0396 66.8985 84.9808 65.2827C81.5898 62.6165 65.16 78.977 61.3654 85.4808C44.4915 114.647 51.677 123.171 51.677 123.171Z" fill="#FFBE18"></path> <path fill-rule="evenodd" clip-rule="evenodd" d="M39.5255 161.224C39.5255 161.224 45.8633 147.772 43.5219 124.584C42.7145 116.505 36.0134 98.1248 33.4299 98.044C29.1508 97.9228 25.1544 119.696 25.8407 126.847C28.8279 158.719 39.5255 161.224 39.5255 161.224Z" fill="#FFBE18"></path> <path fill-rule="evenodd" clip-rule="evenodd" d="M92.3677 111.254C92.3677 111.254 87.1198 124.544 68.8331 139.854C62.4549 145.187 44.6525 154.599 42.7956 153.185C39.7276 150.842 52.6051 132.906 58.2162 128.18C83.1234 106.972 92.3677 111.254 92.3677 111.254Z" fill="#FFBE18"></path> <path fill-rule="evenodd" clip-rule="evenodd" d="M32.0981 206.952C32.0981 206.952 36.4175 191.36 29.3935 166.92C26.931 158.396 16.1527 139.935 13.3269 140.339C8.64419 140.985 8.52308 165.102 10.5819 172.656C19.9877 206.266 32.0981 206.952 32.0981 206.952Z" fill="#FFBE18"></path> <path fill-rule="evenodd" clip-rule="evenodd" d="M85.7476 144.702C85.7476 144.702 80.7823 158.921 62.0515 175.888C55.5118 181.826 37.0232 192.531 35.0048 191.117C31.6542 188.774 44.4913 169.303 50.1832 164.052C75.7766 140.582 85.7476 144.702 85.7476 144.702Z" fill="#FFBE18"></path> <path fill-rule="evenodd" clip-rule="evenodd" d="M33.0669 252.802C33.0669 252.802 34.6009 236.805 23.3382 214.103C19.4225 206.185 5.45508 189.986 2.75041 190.875C-1.77082 192.329 2.30636 215.961 5.73765 222.95C20.9161 254.216 33.0669 252.802 33.0669 252.802Z" fill="#FFBE18"></path> <path fill-rule="evenodd" clip-rule="evenodd" d="M81.1455 178.837C81.1455 178.837 77.795 194.753 59.8715 215.557C53.6145 222.828 35.0855 236.846 32.7038 235.634C28.7073 233.614 39.9297 210.952 45.339 204.529C69.7213 175.807 81.1455 178.837 81.1455 178.837Z" fill="#FFBE18"></path> <path fill-rule="evenodd" clip-rule="evenodd" d="M42.0693 297.481C42.0693 297.481 40.7776 281.565 25.6395 261.286C20.3513 254.216 3.67921 240.805 1.17638 242.097C-3.06228 244.279 5.17284 266.699 9.73445 272.96C30.2819 300.955 42.0693 297.481 42.0693 297.481Z" fill="#FFBE18"></path> <path fill-rule="evenodd" clip-rule="evenodd" d="M79.9746 214.668C79.9746 214.668 78.9654 230.786 64.231 253.812C59.1043 261.851 42.7148 278.333 40.1312 277.485C35.8522 276.071 43.6432 252.196 48.1241 245.087C68.1467 213.376 79.9746 214.668 79.9746 214.668Z" fill="#FFBE18"></path> <path fill-rule="evenodd" clip-rule="evenodd" d="M58.8618 339.614C58.8618 339.614 54.7846 324.264 36.2153 307.055C29.7564 301.036 10.8641 290.775 8.56308 292.512C4.76847 295.38 16.8385 315.902 22.4901 321.234C47.8009 345.027 58.8618 339.614 58.8618 339.614Z" fill="#FFBE18"></path> <path fill-rule="evenodd" clip-rule="evenodd" d="M81.5089 252.843C81.5089 252.843 83.3658 268.8 72.7893 293.845C69.1158 302.571 55.754 321.517 53.0493 321.153C48.5685 320.507 52.0805 295.825 55.2696 288.109C69.5599 253.611 81.5089 252.843 81.5089 252.843Z" fill="#FFBE18"></path> <path fill-rule="evenodd" clip-rule="evenodd" d="M82.8818 377.95C82.8818 377.95 76.1404 363.65 54.7049 349.996C47.2368 345.229 26.7297 338.443 24.7517 340.503C21.4818 343.977 37.0236 361.953 43.6036 366.195C72.8705 385.181 82.8818 377.95 82.8818 377.95Z" fill="#FFBE18"></path> <path fill-rule="evenodd" clip-rule="evenodd" d="M89.7032 289.886C89.7032 289.886 94.3456 305.156 88.25 331.494C86.1105 340.664 76.2203 361.509 73.4753 361.59C68.9137 361.711 68.0659 336.988 69.8825 328.869C77.9965 292.674 89.7032 289.886 89.7032 289.886Z" fill="#FFBE18"></path> <path fill-rule="evenodd" clip-rule="evenodd" d="M113.44 411.358C113.44 411.358 104.236 398.512 80.6206 388.857C72.3855 385.504 50.8289 382.354 49.2546 384.737C46.6306 388.696 65.2 403.602 72.4259 406.632C104.801 420.124 113.44 411.358 113.44 411.358Z" fill="#FFBE18"></path> <path fill-rule="evenodd" clip-rule="evenodd" d="M104.357 324.708C104.357 324.708 111.623 338.846 110.21 365.67C109.726 375.001 103.55 397.098 100.845 397.664C96.3641 398.593 91.197 374.516 91.5603 366.276C93.2557 329.475 104.357 324.708 104.357 324.708Z" fill="#FFBE18"></path> <path d="M116.83 281H172.653V265.233H144.244V264.807L151.062 259.125C167.646 245.311 171.872 238.138 171.872 229.722C171.872 216.156 160.757 207.278 143.321 207.278C126.382 207.278 115.374 216.689 115.409 231.994H134.159C134.124 225.886 137.852 222.477 143.321 222.477C148.754 222.477 152.625 225.851 152.625 231.426C152.625 236.575 149.322 239.913 143.96 244.352L116.83 266.795V281ZM213.154 282.989C232.934 283.024 245.221 268.855 245.256 244.778C245.292 220.844 232.934 207.278 213.154 207.278C193.339 207.278 181.123 220.773 181.052 244.778C180.981 268.749 193.339 282.953 213.154 282.989ZM213.154 266.938C206.336 266.938 201.435 260.084 201.506 244.778C201.577 229.828 206.336 223.188 213.154 223.188C219.972 223.188 224.766 229.828 224.802 244.778C224.837 260.084 219.972 266.938 213.154 266.938ZM254.525 281H310.349V265.233H281.94V264.807L288.758 259.125C305.342 245.311 309.567 238.138 309.567 229.722C309.567 216.156 298.452 207.278 281.016 207.278C264.077 207.278 253.069 216.689 253.104 231.994H271.854C271.819 225.886 275.548 222.477 281.016 222.477C286.45 222.477 290.32 225.851 290.32 231.426C290.32 236.575 287.018 239.913 281.656 244.352L254.525 266.795V281ZM350.849 282.989C370.629 283.024 382.916 268.855 382.952 244.778C382.987 220.844 370.629 207.278 350.849 207.278C331.034 207.278 318.818 220.773 318.747 244.778C318.676 268.749 331.034 282.953 350.849 282.989ZM350.849 266.938C344.031 266.938 339.131 260.084 339.202 244.778C339.273 229.828 344.031 223.188 350.849 223.188C357.668 223.188 362.462 229.828 362.497 244.778C362.533 260.084 357.668 266.938 350.849 266.938Z" fill="#F0AB05"></path> </g> <defs> <clipPath id="clip0"> <rect width="500" height="371" fill="white" transform="translate(0 65)"></rect> </clipPath> </defs> </svg> 