<svg width="184" height="184" fill="none" xmlns="http://www.w3.org/2000/svg"><g clip-path="url(#clip0)"><path d="M167.848 138.56c-24.345 35.636-64.962 33.985-107.982 9.774-48.87-27.512-79.928-96.492-44.85-132.847C35.15-5.373 80.29 7.993 122.567 31.954c42.276 23.96 66.008 76.263 45.282 106.606z" fill="#FD8E56"/><path d="M57.996 6.463l.231 36.026 2.734.36 1.277-35.766-4.242-.62zM42.537 5.082l.915 50.652 3.83-.54-.413-49.842-4.332-.27zm-15.69 2.732l-.362 74.062 3.83-3.442.904-71.831-4.372 1.21z" fill="#E2794B"/><path d="M89.96 78.914l1.507-52.653c.08-2.72 2.352-4.902 5.147-4.942l62.026-1.7c4.473-.12 8.041 3.601 7.609 7.943l-5.247 71.12-71.043 4.663v-24.43z" fill="#D6AF9F"/><path d="M90.975 45.64l73.787 1.95-.131 2.352L90.935 48.2l.04-2.561zm-1.367 24.19l73.425 2.161-.272 2.431-73.194-2.04.04-2.552zm33.823-33.734c1.088 0 1.97-.86 1.97-1.921 0-1.06-.882-1.92-1.97-1.92-1.089 0-1.971.86-1.971 1.92s.882 1.92 1.971 1.92zm.321 24.15c1.088 0 1.97-.86 1.97-1.92 0-1.062-.882-1.922-1.97-1.922s-1.97.86-1.97 1.921.882 1.921 1.97 1.921zm23.641 37.597l1.196 9.324c.12.96 1.015 1.65 2.01 1.55.734-.08 1.347-.57 1.558-1.26l2.794-9.004-7.558-.61z" fill="#BF8875"/><path d="M39.894 83.886c.684 1.411 7.76 56.495 7.76 56.495s18.695 16.687 52.649 23.81c12.845-11.685 16.604-85.947 16.604-85.947l-77.013 5.642z" fill="#623892"/><path d="M129.924 113.169s2.734-66.339-13.69-73.052C99.81 33.405 95.005 52.833 93.98 54.244l-23.962-1.761s-3.74-14.326-18.143-11.295c-16.776 3.531-54.87 85.627-28.305 97.102 19.882 8.594 35.843-35.695 35.843-35.695" fill="#623892"/><path d="M99.348 12.165c.532 0 7.096 7.454.271 11.585 0 0 1.739 3.592.533 7.814-1.88 6.613-6.162-17.328-6.162-17.328l5.358-2.07z" fill="#58371D"/><path d="M98.674 15.477s2.011 14.066 1.076 19.308c-.935 5.242-8.031-20.559-8.031-20.559l6.955 1.25z" fill="#58371D"/><path d="M66.48 37.606s-1.558-6.723-4.905-3.741c-3.267 2.901.743 13.766 5.638 10.854 4.775-2.83-.733-7.113-.733-7.113zm30.696-4.622s.312-2.35 2.975-1.41c2.664.93 1.92 9.424-1.196 10.544-3.116 1.11-1.779-9.134-1.779-9.134z" fill="#F1A780"/><path d="M66.47 42.108s-7.278-24.22 6.673-29.632c21.209-8.234 26.858 8.173 26.265 27.872-.593 19.708-7.267 24.83-15.43 24.99-8.16.16-18.825-6.042-18.393-13.455.422-7.414.884-9.775.884-9.775z" fill="#FBBB9D"/><path d="M67.887 37.706c.784-2.39 0-6.903-.543-11.125-1.286-10.114 10.222 1.311 14.504-2.77 3.227-3.072-2.613-8.604-5.136-9.565-2.523-.96 11.7 12.396 20.605 4.862 8.906-7.533.302-24.29-10.242-17.557 0 0-21.44-1.971-26.998 9.274-5.74 11.615 4.583 19.188 5.036 24.8.462 5.623 2.311 3.492 2.774 2.081z" fill="#58371D"/><path d="M87.668 44.03c-.09.01-.1.15-.01.16 3.216.18 5.79.32 6.483-1.611 1.306-3.642-5.528-7.214-5.91-7.214 0 0 4.382 3.632 3.84 6.003-.483 2.061-3.247 2.541-4.403 2.661z" fill="#F1A780"/><path d="M74.29 29.853c-.574-1.32 5.698-3.972 6.201-2.351.483 1.57-5.468 4.052-6.202 2.351zm15.187-2.271c-.573-1.32 5.699-3.972 6.202-2.351.482 1.56-5.478 4.042-6.202 2.351z" fill="#B45C2D"/><path d="M56.217 65.248s.523-3.221 1.99-5.692a.813.813 0 0 1 1.066-.3c3.608 1.9 2.302 10.634 2.302 10.634l-4.503-2.68-.855-1.962z" fill="#EFC5A9"/><path d="M107.67 98.003s-4.452 36.346 11.298 36.346c22.254 0 31.672-70.311 31.672-70.311l-11.7-4.692-16.203 42.538-14.715-5.642" fill="#623892"/><path d="M76.963 83.486L71.325 89.9a.437.437 0 0 1-.624.03L47.845 68.58a4.672 4.672 0 0 1-.322-6.502l.01-.01c1.749-1.99 4.825-2.14 6.765-.33l22.635 21.15c.171.16.181.43.03.6z" fill="#E8E8E8"/><path d="M85.135 85.157l-8.122-2.19-6.211 7.062 2.915 8.114c.23.63.603 1.2 1.085 1.65l1.086 1.011 12.041-13.696-1.095-1.02a4.23 4.23 0 0 0-1.699-.931z" fill="#E8E8E8"/><path d="M83.343 95.211c3.324-3.793 5.343-7.455 4.51-8.177-.832-.723-4.202 1.767-7.525 5.56-3.324 3.794-5.343 7.455-4.51 8.178.832.723 4.201-1.767 7.525-5.56z" fill="#FCB647"/><path d="M47.322 91.01s-2.704-7.394.1-14.817c.392-1.03 2.503-4.302 3.488-5.002l3.72 3.441s3.869.86 7.266-5.702c0 0 .995-4.512 4.182-2.741 2.502 1.39 2.472 4.702 2.472 4.702s.815-1.841 3.207-.33c1.88 1.18 1.668 4.492 1.668 4.492s.774-.88 1.508-.5c1.92.98 1.437 3.841.703 5.492-2.402 5.402-9.307 14.616-16.655 18.308l-11.66-7.343z" fill="#FBBB9D"/><path d="M39.421 93.68c.503-.12 17.329 10.605 17.329 10.605s-8.815 41.678-31.752 34.105C-1.186 129.756 35.15 94.741 39.42 93.68zm96.323-31.713s-34.698 65.138-20.797 70.961c22.083 9.264 36.336-34.935 38.628-62.618l-17.831-8.343z" fill="#6B42A5"/><path opacity=".68" d="M176.723 124.224c-9.971-7.173-88.864-37.166-88.864-37.166l-12.052 13.706s11.56 66.399 21.35 76.593c9.819 10.235 45.18 9.384 68.308-7.793 17.721-13.156 25.259-35.256 11.258-45.34z" fill="#FCB647"/><path d="M47.322 91.01c-.11.33-3.317 5.342-3.317 5.342l12.162 7.553 2.824-5.542-11.67-7.353z" fill="#fff"/><path opacity=".68" d="M127.521 3.462l2.845 3.711s-9.056 6.813 1.407 13.416h5.84s4.955-3.141 4.603-7.083c-.492-5.553-5.498-6.833-5.498-6.833l3.589-4.662a.349.349 0 0 0-.322-.56L127.763 2.9a.348.348 0 0 0-.242.56z" fill="#FCB647"/><path d="M11.057 20.159l.563 77.483 3.658 6.593 1.086-90.039-5.307 5.963z" fill="#E2794B"/><path d="M81.054 32.474c.281 0 .543.06.794.14-.432-.78-1.246-1.31-2.181-1.31-1.387 0-2.523 1.16-2.523 2.6 0 1.231.834 2.262 1.95 2.522a2.443 2.443 0 0 1-.523-1.49 2.48 2.48 0 0 1 2.483-2.462z" fill="#F9E7E1"/><path d="M82.19 33.905c0-.47-.13-.91-.342-1.29a2.323 2.323 0 0 0-.794-.14 2.465 2.465 0 0 0-2.472 2.46c0 .56.2 1.08.522 1.49.181.04.372.07.573.07 1.387.01 2.513-1.15 2.513-2.59z" fill="#58371D"/><path d="M94.865 32.474c.281 0 .542.06.794.14-.433-.78-1.247-1.31-2.181-1.31-1.388 0-2.523 1.16-2.523 2.6 0 1.231.834 2.262 1.95 2.522a2.442 2.442 0 0 1-.523-1.49 2.48 2.48 0 0 1 2.483-2.462z" fill="#F9E7E1"/><path d="M96 33.905c0-.47-.13-.91-.341-1.29a2.324 2.324 0 0 0-.794-.14 2.465 2.465 0 0 0-2.473 2.46c0 .56.201 1.08.523 1.49.18.04.372.07.573.07 1.387.01 2.513-1.15 2.513-2.59z" fill="#58371D"/><path d="M138.719 56.385s2.683-8.054 3.186-9.614c.503-1.551 2.061-5.983 5.82-8.194 3.759-2.211 5.046-6.133 7.287-5.502 2.231.63.261 5.402-2.252 7.413-2.512 2.01-3.377 3.301-1.186 4.532 2.192 1.23 8.373 1.02 11.71-1.681 3.337-2.701 6.835-9.654 8.745-8.574 2.995 1.701-1.89 10.105-6.704 13.216 6.603.28 11.237-10.745 14.333-9.304 3.377 1.57-7.026 13.726-13.429 15.807 6.885-.38 13.318-8.404 15.057-6.503 2.453 2.691-10.021 10.374-14.795 11.065 4.854 1.21 10.564-1.69 11.458.5 1.216 2.981-13.268 7.093-25.42.7-1.869-.98-3.136-.85-3.94 1.671" fill="#FBBB9D"/><path d="M138.659 55.884l14.202 7.173-2.121 5.963-14.996-7.053 2.915-6.083z" fill="#fff"/><path d="M99.388 39.747c3.468 4.872 5.95 25.561-3.609 29.943-20.766 9.514-28.465-8.413-30.103-13.005-1.387-3.892-.634-15.177-.382-18.519.06-.83.512-1.59 1.226-1.97.422-.22.885-.27 1.276.15.985 1.06.955 10.004 6.051 10.444 5.599.49 9.77-3.001 16.836-2.951 5.69.04 4.845 2.731 7.056 2.911 1.679.15.583-8.504 1.649-7.003z" fill="#B45C2D"/><path d="M86.33 47.931c1.287-.68 4.152-1.79 6.886-.11.18.11.1.4-.1.4l-6.675.11c-.23.01-.311-.3-.11-.4z" fill="#FBBB9D"/></g><defs><clipPath id="clip0"><path d="M0 0h184v184H0V0z" fill="#fff"/></clipPath></defs></svg>