<svg width="44" height="50" fill="none" xmlns="http://www.w3.org/2000/svg"><path d="M40.118 12.321c.994-.41-9.613 1.895-17.024-8.581l-.052-.001c-7.685 10.135-18.223 7.354-17.24 7.81-4.128 30.717 11.91 27.12 16.536 35.989 0 0 .093.396.146.294.05.106.153-.286.153-.286 4.858-8.657 20.79-4.34 17.48-35.225z" fill="#99CE65"/><path d="M12.607 23.599c-1.113.859 4.898 11.173 8.214 10.484 3.315-.692 12.098-15.324 10.778-16.411-1.32-1.088-11.168 10.872-11.168 10.872s-6.685-5.822-7.824-4.945z" fill="#F7F9A7"/></svg>