<svg width="80" height="80" fill="none" xmlns="http://www.w3.org/2000/svg"><g clip-path="url(#clip0)"><path d="M50.8 40.8A15 15 0 1170 50.2l2.1 6S54.7 52 50.8 40.9z" fill="#A38FDD"/><path d="M11.2 46.7a27.2 27.2 0 1136.1 14L52 71.4s-32-5-40.7-24.7z" fill="#FF8A00" fill-opacity=".7"/><path d="M43.9 27.5C36.3 27.5 33.8 39 27.8 39a3.9 3.9 0 110-7.8 6.2 6.2 0 014.8 2.6l2.5-3a10 10 0 00-7.4-3.4 7.7 7.7 0 000 15.4c8.4 0 11.5-11.6 16.1-11.6a3.9 3.9 0 010 7.8c-2.2 0-4.3-2.1-4.3-2.1L37 40a9 9 0 006.9 3 7.7 7.7 0 000-15.5z" fill="#fff"/></g><defs><clipPath id="clip0"><path fill="#fff" d="M0 0h80v80H0z"/></clipPath></defs></svg>